STARTFONT 2.1
FONT -Monotype-Arial-Bold-I-Normal--33-240-100-100-P-191-iso8859-5
SIZE 24 100 100
FONTBOUNDINGBOX 41 38 -4 -7

STARTPROPERTIES 24
FOUNDRY "Monotype"
FAMILY_NAME "Arial"
WEIGHT_NAME "Bold"
SLANT "I"
SETWIDTH_NAME "Normal"
ADD_STYLE_NAME ""
PIXEL_SIZE 33
POINT_SIZE 240
RESOLUTION_X 100
RESOLUTION_Y 100
SPACING "P"
AVERAGE_WIDTH 191
CHARSET_REGISTRY "iso8859"
CHARSET_ENCODING "5"
FACE_NAME "Arial Bold Inclined ISO Latin Cyrillic"
_DEC_DEVICE_FONTNAMES "PS=arial-bin-latcyrillic"
COPYRIGHT "Copyright (c) 1993 Monotype Typography Ltd."
CAP_HEIGHT 27
X_HEIGHT 19
WEIGHT 10
QUAD_WIDTH 23
DEFAULT_CHAR 160
FONT_DESCENT 7
FONT_ASCENT 31
ENDPROPERTIES

CHARS 191

STARTCHAR space
ENCODING 32
SWIDTH 278 0
DWIDTH 9 0
BBX 0 0 0 0
BITMAP
ENDCHAR

STARTCHAR exclam
ENCODING 33
SWIDTH 333 0
DWIDTH 11 0
BBX 10 24 1 0
BITMAP
07C0
07C0
0F80
0F80
0F80
0F80
0F00
0F00
1F00
1F00
1E00
1E00
1E00
1C00
1C00
1C00
1800
3800
0000
0000
7C00
7800
F800
F800
ENDCHAR

STARTCHAR quotedbl
ENCODING 34
SWIDTH 474 0
DWIDTH 16 0
BBX 13 9 4 15
BITMAP
7CF8
7CF8
F8F8
F9F0
F9F0
F1F0
F1E0
F1E0
E1E0
ENDCHAR

STARTCHAR numbersign
ENCODING 35
SWIDTH 556 0
DWIDTH 18 0
BBX 18 24 1 0
BITMAP
038780
038700
078F00
078F00
078F00
070E00
FFFFC0
FFFFC0
FFFFC0
FFFFC0
0E1E00
1E1C00
1E3C00
1E3C00
FFFFC0
FFFFC0
FFFFC0
FFFFC0
3C7800
387800
387000
787000
78F000
78F000
ENDCHAR

STARTCHAR dollar
ENCODING 36
SWIDTH 556 0
DWIDTH 18 0
BBX 17 28 1 -3
BITMAP
001800
01FC00
03FE00
07FF00
0FBF80
1F3780
1E7780
1E6000
1E6000
1F6000
0FE000
0FF000
07F800
01FC00
00FE00
00DF00
01DF00
018F00
F98F00
798F00
799E00
7DBE00
3FFC00
1FF800
0FF000
030000
070000
060000
ENDCHAR

STARTCHAR percent
ENCODING 37
SWIDTH 889 0
DWIDTH 29 0
BBX 25 26 2 -2
BITMAP
0F000F00
3F800E00
7FC01C00
79C03C00
F1C07800
F1C07000
E1C0E000
E3C1E000
E3C3C000
E7878000
FF870000
7F0E0000
3C1E0000
003C1E00
00387F00
0070FF80
00F0F380
01E1E380
01C1E380
0381C380
0781C780
0F01C780
1E01CF00
1C01FF00
3C00FE00
78007800
ENDCHAR

STARTCHAR ampersand
ENCODING 38
SWIDTH 722 0
DWIDTH 24 0
BBX 20 24 2 0
BITMAP
00FC00
01FF00
03FF80
07C780
078780
078780
078F00
07DF00
03FE00
03FC00
0FE000
1FF000
3FF800
7CF840
787CE0
F87FF0
F83FF0
F81FE0
F80FC0
7C1FC0
7FFFF0
3FFFF0
1FF9E0
07E0C0
ENDCHAR

STARTCHAR quoteright
ENCODING 39
SWIDTH 278 0
DWIDTH 9 0
BBX 7 9 3 15
BITMAP
3E
3E
3C
7C
1C
1C
38
78
E0
ENDCHAR

STARTCHAR parenleft
ENCODING 40
SWIDTH 333 0
DWIDTH 11 0
BBX 12 31 1 -7
BITMAP
00F0
01E0
01C0
03C0
0780
0F00
0F00
1E00
1E00
3C00
3C00
7C00
7800
7800
F800
F800
F000
F000
F000
F000
F000
F000
F000
F000
7000
7000
7800
7800
3800
3800
3C00
ENDCHAR

STARTCHAR parenright
ENCODING 41
SWIDTH 333 0
DWIDTH 11 0
BBX 12 31 -2 -7
BITMAP
03C0
01C0
01E0
01E0
01E0
00E0
00F0
00F0
00F0
00F0
00F0
00F0
00F0
00F0
00F0
01F0
01F0
01E0
01E0
01E0
03C0
03C0
07C0
0780
0F00
0F00
1E00
1C00
3C00
7800
F000
ENDCHAR

STARTCHAR asterisk
ENCODING 42
SWIDTH 389 0
DWIDTH 13 0
BBX 12 12 2 11
BITMAP
0700
0600
0600
4620
76F0
FFF0
1F00
0F80
1D80
79E0
38C0
1080
ENDCHAR

STARTCHAR plus
ENCODING 43
SWIDTH 584 0
DWIDTH 19 0
BBX 16 16 2 4
BITMAP
03C0
03C0
03C0
03C0
03C0
03C0
FFFF
FFFF
FFFF
FFFF
03C0
03C0
03C0
03C0
03C0
03C0
ENDCHAR

STARTCHAR comma
ENCODING 44
SWIDTH 278 0
DWIDTH 9 0
BBX 7 9 -1 -5
BITMAP
3E
3E
3E
7C
0C
1C
38
78
F0
ENDCHAR

STARTCHAR minus
ENCODING 45
SWIDTH 584 0
DWIDTH 19 0
BBX 17 4 2 10
BITMAP
FFFF80
FFFF80
FFFF80
FFFF80
ENDCHAR

STARTCHAR period
ENCODING 46
SWIDTH 278 0
DWIDTH 9 0
BBX 5 4 1 0
BITMAP
F8
F8
F0
F0
ENDCHAR

STARTCHAR slash
ENCODING 47
SWIDTH 278 0
DWIDTH 9 0
BBX 15 25 -2 -1
BITMAP
001E
001C
003C
0038
0078
0070
00F0
00E0
01E0
01C0
03C0
0380
0780
0700
0F00
0E00
0E00
1C00
1C00
3800
3800
7000
7000
E000
E000
ENDCHAR

STARTCHAR zero
ENCODING 48
SWIDTH 556 0
DWIDTH 18 0
BBX 17 24 1 0
BITMAP
00F800
03FE00
07FF00
0FFF00
0F8F80
1F0780
3E0780
3E0780
3C0780
7C0780
7C0F80
7C0F80
780F80
F80F80
F81F00
F81F00
F81F00
F83E00
783E00
7C7C00
7FF800
3FF000
1FE000
078000
ENDCHAR

STARTCHAR one
ENCODING 49
SWIDTH 556 0
DWIDTH 18 0
BBX 13 24 3 0
BITMAP
0038
0078
01F8
03F0
0FF0
3FF0
7FF0
7EF0
F9E0
E3E0
03E0
03E0
03C0
03C0
07C0
07C0
07C0
0780
0F80
0F80
0F80
0F80
0F00
1F00
ENDCHAR

STARTCHAR two
ENCODING 50
SWIDTH 556 0
DWIDTH 18 0
BBX 17 24 1 0
BITMAP
00F800
03FE00
07FF00
0FFF80
1F8F80
1F0780
1E0780
060780
000F80
001F80
001F00
003E00
007E00
00FC00
01F800
03F000
07E000
0FC000
1F8000
3E0000
3FFF00
7FFE00
7FFE00
FFFE00
ENDCHAR

STARTCHAR three
ENCODING 51
SWIDTH 556 0
DWIDTH 18 0
BBX 17 24 1 0
BITMAP
01F800
03FE00
07FF00
0FFF00
1F1F80
1E0F80
1E0F80
000F80
000F00
001F00
00FE00
00F800
01FC00
01FE00
003E00
001F00
001F00
781F00
F81E00
7C3E00
7FFC00
3FFC00
1FF000
07C000
ENDCHAR

STARTCHAR four
ENCODING 52
SWIDTH 556 0
DWIDTH 18 0
BBX 18 24 0 0
BITMAP
0007C0
000780
000F80
001F80
003F80
007F80
00FF00
01FF00
01EF00
03DF00
079F00
0F9E00
1F1E00
3E1E00
7C3E00
7FFF80
7FFF80
FFFF80
FFFF80
007C00
007800
007800
007800
00F800
ENDCHAR

STARTCHAR five
ENCODING 53
SWIDTH 556 0
DWIDTH 18 0
BBX 17 24 1 0
BITMAP
07FF80
0FFF00
0FFF00
0FFF00
1F0000
1F0000
1E0000
1FF000
3FFC00
3FFE00
3E7E00
7C1F00
001F00
001F00
001F00
001F00
F01E00
F03E00
F83E00
F87C00
7FFC00
7FF800
1FE000
0F8000
ENDCHAR

STARTCHAR six
ENCODING 54
SWIDTH 556 0
DWIDTH 18 0
BBX 16 24 2 0
BITMAP
01F8
07FC
0FFE
1FFF
1F1F
3E0F
7C00
7C00
7FE0
FFF8
FFFC
FE3E
F83E
F81E
F81E
F01E
F03E
F03E
F83E
787C
7FF8
3FF8
1FE0
0F80
ENDCHAR

STARTCHAR seven
ENCODING 55
SWIDTH 556 0
DWIDTH 18 0
BBX 16 24 3 0
BITMAP
FFFF
FFFF
FFFF
FFBE
007C
0078
00F0
01F0
03E0
03C0
07C0
0780
0F80
0F00
1F00
1E00
3E00
3E00
3C00
7C00
7C00
7800
7800
F800
ENDCHAR

STARTCHAR eight
ENCODING 56
SWIDTH 556 0
DWIDTH 18 0
BBX 17 24 1 0
BITMAP
01FC00
07FF00
0FFF00
1F8F80
1F0780
1E0780
1E0780
1E0F80
1F1F00
0FFE00
07F800
1FFC00
3F3E00
7C1F00
7C0F00
F80F00
F81F00
F81F00
F81F00
7C3E00
7FFE00
3FFC00
1FF000
07C000
ENDCHAR

STARTCHAR nine
ENCODING 57
SWIDTH 556 0
DWIDTH 18 0
BBX 16 24 2 0
BITMAP
01F0
07F8
1FFC
1FFE
3E1F
7C1F
7C0F
7C0F
780F
781F
781F
7C3F
7C7F
3FFF
1FFF
07DE
003E
003E
F07C
F8F8
FFF8
7FF0
3FC0
1F00
ENDCHAR

STARTCHAR colon
ENCODING 58
SWIDTH 333 0
DWIDTH 11 0
BBX 9 17 1 0
BITMAP
0F80
0F00
1F00
1F00
0000
0000
0000
0000
0000
0000
0000
0000
0000
7C00
7C00
7800
F800
ENDCHAR

STARTCHAR semicolon
ENCODING 59
SWIDTH 333 0
DWIDTH 11 0
BBX 10 22 0 -5
BITMAP
07C0
0780
0780
0F80
0000
0000
0000
0000
0000
0000
0000
0000
0000
3E00
3E00
3E00
3C00
0C00
1C00
3800
7800
F000
ENDCHAR

STARTCHAR less
ENCODING 60
SWIDTH 584 0
DWIDTH 19 0
BBX 16 18 2 3
BITMAP
0001
0003
001F
007F
01FF
0FFE
3FF0
FFC0
FA00
FC00
FF00
7FE0
1FF8
07FF
00FF
003F
000F
0001
ENDCHAR

STARTCHAR equal
ENCODING 61
SWIDTH 584 0
DWIDTH 19 0
BBX 17 11 2 6
BITMAP
FFFF80
FFFF80
FFFF80
FFFF80
000000
000000
000000
FFFF80
FFFF80
FFFF80
FFFF80
ENDCHAR

STARTCHAR greater
ENCODING 62
SWIDTH 584 0
DWIDTH 19 0
BBX 16 18 2 3
BITMAP
8000
E000
F800
FE00
FFC0
3FF0
0FFC
01FF
007F
001F
00FF
03FF
1FFC
7FE0
FF80
FE00
F000
C000
ENDCHAR

STARTCHAR question
ENCODING 63
SWIDTH 611 0
DWIDTH 20 0
BBX 16 24 3 0
BITMAP
07F8
1FFC
3FFE
7E3F
780F
F80F
F00F
001F
003E
007E
00FC
01F8
03F0
07E0
0F80
0F00
1F00
1E00
0000
0000
3E00
3E00
3C00
3C00
ENDCHAR

STARTCHAR at
ENCODING 64
SWIDTH 975 0
DWIDTH 32 0
BBX 31 31 0 -7
BITMAP
000FF000
007FFE00
01FFFF80
03F80FC0
07C003E0
0F0000F0
1E000070
3C0F9E38
383FDE38
787FFE1C
70F87E1C
71F03E1C
71E03C1C
E1E03C1C
E3E03C1C
E3C03C1C
E3C03838
E3C07838
E3C07870
E3E0F8F0
71E1F9E0
71FFFFC0
78FF7F80
383E7E00
3C00001E
1E00007C
0F8000F8
07F007F0
01FFFFC0
007FFF00
000FF800
ENDCHAR

STARTCHAR A
ENCODING 65
SWIDTH 722 0
DWIDTH 24 0
BBX 22 24 -1 0
BITMAP
0007E0
000FE0
000FE0
001FE0
001FE0
003EE0
003DF0
007DF0
00F8F0
00F8F0
01F0F0
01F0F0
03E0F8
03E0F8
07C0F8
0FFFF8
0FFFF8
1FFFF8
1FFFFC
3E007C
3E007C
7C007C
7C003C
F8003C
ENDCHAR

STARTCHAR B
ENCODING 66
SWIDTH 722 0
DWIDTH 24 0
BBX 22 24 1 0
BITMAP
07FFC0
0FFFF0
0FFFF8
0FFFFC
0F80FC
0F007C
1F007C
1F007C
1F00F8
1F01F8
1FFFF0
3FFF80
3FFFE0
3FFFF0
3C01F8
3C00F8
7C00F8
7C00F8
7C01F8
7803F0
7FFFF0
FFFFE0
FFFF80
FFFE00
ENDCHAR

STARTCHAR C
ENCODING 67
SWIDTH 722 0
DWIDTH 24 0
BBX 22 24 2 0
BITMAP
007F00
01FFC0
07FFE0
0FFFF0
1FC1F8
3F80F8
3F0078
7E007C
7C0000
7C0000
F80000
F80000
F80000
F80000
F80000
F80180
F801F0
7C03F0
7C07E0
7F0FE0
3FFFC0
1FFF80
0FFE00
03F800
ENDCHAR

STARTCHAR D
ENCODING 68
SWIDTH 722 0
DWIDTH 24 0
BBX 22 24 1 0
BITMAP
0FFF00
0FFFC0
0FFFF0
0FFFF0
1F01F8
1F00F8
1F007C
1F007C
1F007C
3E007C
3E007C
3E007C
3E007C
3C007C
7C00F8
7C00F8
7C01F8
7C03F0
7803F0
F80FE0
FFFFC0
FFFF80
FFFE00
FFF800
ENDCHAR

STARTCHAR E
ENCODING 69
SWIDTH 667 0
DWIDTH 22 0
BBX 22 24 1 0
BITMAP
0FFFFC
0FFFFC
0FFFF8
0FFFF8
0F0000
1F0000
1F0000
1F0000
1F0000
3FFFF0
3FFFE0
3FFFE0
3FFFE0
3C0000
7C0000
7C0000
7C0000
7C0000
780000
F80000
FFFFE0
FFFFC0
FFFFC0
FFFFC0
ENDCHAR

STARTCHAR F
ENCODING 70
SWIDTH 611 0
DWIDTH 20 0
BBX 22 24 0 0
BITMAP
07FFFC
07FFFC
07FFF8
07FFF8
0F8000
0F8000
0F8000
0F8000
0F0000
1F0000
1FFFF0
1FFFE0
1FFFE0
1FFFE0
3E0000
3E0000
3E0000
3E0000
7C0000
7C0000
7C0000
7C0000
780000
F80000
ENDCHAR

STARTCHAR G
ENCODING 71
SWIDTH 778 0
DWIDTH 26 0
BBX 23 24 2 0
BITMAP
003F80
01FFE0
03FFF8
0FFFFC
0FC0FC
1F007E
3E003E
3E0018
7C0000
7C0000
780000
F80FFC
F81FFC
F81FFC
F81FFC
F80078
F80078
7C00F8
7C00F8
7F07F0
3FFFF0
1FFFF0
0FFFC0
03FC00
ENDCHAR

STARTCHAR H
ENCODING 72
SWIDTH 722 0
DWIDTH 24 0
BBX 23 24 1 0
BITMAP
0F803E
0F803E
0F803E
0F803E
0F803E
1F007C
1F007C
1F007C
1F007C
1FFFFC
3FFFF8
3FFFF8
3FFFF8
3E00F8
3C01F0
7C01F0
7C01F0
7C01F0
7C01F0
7803E0
F803E0
F803E0
F803E0
F803E0
ENDCHAR

STARTCHAR I
ENCODING 73
SWIDTH 278 0
DWIDTH 9 0
BBX 10 24 0 0
BITMAP
07C0
07C0
07C0
0F80
0F80
0F80
0F80
0F80
1F00
1F00
1F00
1F00
1E00
3E00
3E00
3E00
3E00
3C00
7C00
7C00
7C00
7C00
7800
F800
ENDCHAR

STARTCHAR J
ENCODING 74
SWIDTH 556 0
DWIDTH 18 0
BBX 19 24 0 0
BITMAP
0003E0
0003C0
0007C0
0007C0
0007C0
000780
000F80
000F80
000F80
000F80
000F00
001F00
001F00
001F00
001F00
001E00
103E00
F03E00
F03E00
F87C00
FFFC00
7FF800
3FF000
1FC000
ENDCHAR

STARTCHAR K
ENCODING 75
SWIDTH 722 0
DWIDTH 24 0
BBX 25 24 1 0
BITMAP
0F803F80
0F807E00
0F80FC00
0F83F800
0F07F000
1F0FE000
1F1F8000
1F3F0000
1F7E0000
3EFC0000
3FFE0000
3FFE0000
3FFF0000
3F9F0000
7F0F8000
7E0F8000
7C07C000
7C07C000
7803E000
F803F000
F801F000
F801F800
F800F800
F000FC00
ENDCHAR

STARTCHAR L
ENCODING 76
SWIDTH 611 0
DWIDTH 20 0
BBX 17 24 1 0
BITMAP
0F8000
0F8000
0F8000
0F8000
0F0000
1F0000
1F0000
1F0000
1F0000
1E0000
3E0000
3E0000
3E0000
3E0000
3C0000
7C0000
7C0000
7C0000
7C0000
F80000
FFFF80
FFFF80
FFFF80
FFFF80
ENDCHAR

STARTCHAR M
ENCODING 77
SWIDTH 833 0
DWIDTH 27 0
BBX 28 24 0 0
BITMAP
07F007F0
07F00FF0
07F00FF0
07F81FE0
07781EE0
0F781EE0
0F783DE0
0F783DE0
0F787BC0
1F787BC0
1E78F3C0
1E78F3C0
1E79E7C0
1E79E780
3E7BC780
3C7BC780
3C7BCF80
3C7F8F80
3C7F8F00
7C7F0F00
7C7F0F00
787E1F00
787E1E00
F87C1E00
ENDCHAR

STARTCHAR N
ENCODING 78
SWIDTH 722 0
DWIDTH 24 0
BBX 23 24 1 0
BITMAP
07801E
0FC01E
0FC03E
0FE03E
0FE03C
0FE03C
1FF03C
1FF07C
1EF87C
1EF878
3E7878
3E7CF8
3E7CF8
3C3EF8
3C3EF0
7C1EF0
7C1FF0
7C1FF0
780FF0
780FE0
F807E0
F807E0
F007E0
F003E0
ENDCHAR

STARTCHAR O
ENCODING 79
SWIDTH 778 0
DWIDTH 26 0
BBX 23 24 2 0
BITMAP
007F80
01FFE0
07FFF0
0FFFF8
0FC1FC
1F807C
3F007E
3E003E
7C003E
7C003E
78003E
F8003E
F8003E
F8003C
F8007C
F8007C
F800F8
7C01F8
7C03F0
7F07E0
3FFFE0
1FFF80
0FFF00
03F800
ENDCHAR

STARTCHAR P
ENCODING 80
SWIDTH 667 0
DWIDTH 22 0
BBX 22 24 0 0
BITMAP
07FFC0
07FFF0
07FFF8
0FFFFC
0F80FC
0F807C
0F807C
1F007C
1F007C
1F00F8
1F03F8
1FFFF0
3FFFF0
3FFFC0
3FFE00
3E0000
3C0000
7C0000
7C0000
7C0000
7C0000
780000
F80000
F80000
ENDCHAR

STARTCHAR Q
ENCODING 81
SWIDTH 778 0
DWIDTH 26 0
BBX 23 27 2 -3
BITMAP
007F80
01FFE0
07FFF0
0FFFF8
0FC1FC
1F807C
3F007E
3E003E
7C003E
7C003E
78003E
F8003E
F8003E
F8003C
F8007C
F8107C
F838F8
7C7DF8
7E1FF0
7F0FE0
3FFFE0
1FFFC0
0FFFE0
03FDF8
0000F0
000070
000020
ENDCHAR

STARTCHAR R
ENCODING 82
SWIDTH 722 0
DWIDTH 24 0
BBX 23 24 1 0
BITMAP
07FFF0
07FFF8
0FFFFC
0FFFFE
0F807E
0F803E
0F003E
1F003E
1F007E
1F00FC
1FFFFC
3FFFF8
3FFFE0
3FFF00
3E0F80
3C0F80
7C07C0
7C07C0
7C03E0
7C03E0
7801F0
F801F0
F801F8
F800F8
ENDCHAR

STARTCHAR S
ENCODING 83
SWIDTH 667 0
DWIDTH 22 0
BBX 21 24 1 0
BITMAP
00FE00
03FF80
07FFE0
0FFFE0
0F83F0
1F01F0
1F00F8
1F0000
1FC000
0FF000
0FFC00
03FF00
01FF80
007FC0
000FE0
0007E0
F803E0
F803E0
7C03E0
7E0FC0
7FFFC0
3FFF80
1FFE00
03F800
ENDCHAR

STARTCHAR T
ENCODING 84
SWIDTH 611 0
DWIDTH 20 0
BBX 20 24 3 0
BITMAP
7FFFF0
7FFFE0
FFFFE0
FFFFE0
01F000
01F000
03E000
03E000
03E000
03E000
03C000
07C000
07C000
07C000
07C000
078000
0F8000
0F8000
0F8000
0F8000
1F0000
1F0000
1F0000
1F0000
ENDCHAR

STARTCHAR U
ENCODING 85
SWIDTH 722 0
DWIDTH 24 0
BBX 22 24 2 0
BITMAP
1F007C
1F007C
1F007C
1F007C
3E0078
3E00F8
3E00F8
3E00F8
3E00F8
7C00F0
7C01F0
7C01F0
7C01F0
7801F0
F803E0
F803E0
F803E0
F807C0
F807C0
7E1FC0
7FFF80
3FFF00
1FFE00
07F000
ENDCHAR

STARTCHAR V
ENCODING 86
SWIDTH 667 0
DWIDTH 22 0
BBX 22 24 3 0
BITMAP
F8007C
F8007C
F800F8
F800F8
7C01F0
7C01E0
7C03E0
7C07C0
7C07C0
3C0F80
3E0F80
3E1F00
3E1F00
3E3E00
3E3C00
1E7C00
1F7800
1F7800
1FF000
1FF000
0FE000
0FE000
0FC000
0FC000
ENDCHAR

STARTCHAR W
ENCODING 87
SWIDTH 944 0
DWIDTH 31 0
BBX 31 24 3 0
BITMAP
F807C03E
F80FC03E
F80FC07C
F81FC07C
F81FC078
F83FE0F8
F83FE0F0
F87DE1F0
F879E1E0
F8F9E3E0
F8F1E3C0
F9F1E7C0
F9F1E780
FBE1EF80
FBE1EF00
7FC1EF00
7BC1EE00
7F81FE00
7F81FC00
7F01FC00
7F01F800
7E01F800
7E01F800
7C01F000
ENDCHAR

STARTCHAR X
ENCODING 88
SWIDTH 667 0
DWIDTH 22 0
BBX 27 24 -2 0
BITMAP
07C007E0
07E00FC0
03E01F80
03F03F00
01F07E00
01F8FC00
00F9FC00
00FDF800
007FF000
007FE000
003FC000
001F8000
003F0000
007F8000
00FF8000
01FFC000
03FBC000
03F3E000
07E3E000
0FC3F000
1F81F000
3F81F800
7F00F800
FE00FC00
ENDCHAR

STARTCHAR Y
ENCODING 89
SWIDTH 667 0
DWIDTH 22 0
BBX 22 24 3 0
BITMAP
F800FC
7C01F8
7C01F0
7E03F0
3E07E0
3F07C0
1F0F80
1F1F80
0F9F00
0FBE00
07FE00
07FC00
03F800
03F000
01F000
03E000
03E000
03E000
03E000
07C000
07C000
07C000
07C000
078000
ENDCHAR

STARTCHAR Z
ENCODING 90
SWIDTH 611 0
DWIDTH 20 0
BBX 21 24 0 0
BITMAP
0FFFF8
0FFFF8
0FFFF8
1FFFF0
0003F0
0007E0
000FC0
001F80
003F00
003F00
007E00
00FC00
01F800
03F000
07E000
07E000
0FC000
1F8000
3F0000
7E0000
7FFFE0
FFFFE0
FFFFE0
FFFFC0
ENDCHAR

STARTCHAR bracketleft
ENCODING 91
SWIDTH 333 0
DWIDTH 11 0
BBX 15 30 -1 -6
BITMAP
01FE
03FC
03FC
03C0
03C0
03C0
07C0
07C0
0780
0780
0780
0F80
0F00
0F00
0F00
1F00
1F00
1E00
1E00
1E00
3E00
3E00
3C00
3C00
3C00
7C00
7C00
7F80
7F80
FF00
ENDCHAR

STARTCHAR backslash
ENCODING 92
SWIDTH 278 0
DWIDTH 9 0
BBX 5 25 3 -1
BITMAP
E0
E0
F0
F0
F0
F0
F0
70
70
70
70
70
70
70
70
70
70
70
70
70
78
78
78
78
78
ENDCHAR

STARTCHAR bracketright
ENCODING 93
SWIDTH 333 0
DWIDTH 11 0
BBX 15 30 -3 -6
BITMAP
03FE
03FC
03FC
007C
007C
0078
0078
0078
00F8
00F0
00F0
00F0
00F0
01F0
01E0
01E0
01E0
03E0
03E0
03C0
03C0
03C0
07C0
07C0
0780
0780
0780
7F80
7F80
FF00
ENDCHAR

STARTCHAR asciicircum
ENCODING 94
SWIDTH 584 0
DWIDTH 19 0
BBX 16 13 2 11
BITMAP
03C0
03E0
07E0
07F0
0FF0
0F78
0F78
1E78
1E3C
3E3C
3C3E
7C1E
F81F
ENDCHAR

STARTCHAR underscore
ENCODING 95
SWIDTH 556 0
DWIDTH 18 0
BBX 19 3 -1 -7
BITMAP
FFFFE0
FFFFE0
FFFFE0
ENDCHAR

STARTCHAR quoteleft
ENCODING 96
SWIDTH 278 0
DWIDTH 9 0
BBX 7 9 3 15
BITMAP
0E
1E
38
30
70
7C
7C
7C
F8
ENDCHAR

STARTCHAR a
ENCODING 97
SWIDTH 556 0
DWIDTH 18 0
BBX 16 17 1 0
BITMAP
07F8
0FFE
1FFF
3F1F
3E0F
000F
003F
1FFF
7FFF
7F1E
F83E
F03E
F07E
F8FE
FFFC
7FBE
3F3E
ENDCHAR

STARTCHAR b
ENCODING 98
SWIDTH 611 0
DWIDTH 20 0
BBX 18 24 1 0
BITMAP
0F8000
0F8000
0F8000
0F8000
0F0000
1F0000
1F0000
1F7E00
1F7F80
1FFF80
3F8FC0
3F07C0
3E03C0
3C03C0
3C03C0
7C03C0
7C07C0
7C07C0
7C0780
FE0F80
FF3F00
F7FE00
F7FC00
F1F800
ENDCHAR

STARTCHAR c
ENCODING 99
SWIDTH 556 0
DWIDTH 18 0
BBX 17 17 1 0
BITMAP
03FC00
0FFE00
1FFF00
3F1F80
3E0F80
7C0C00
7C0000
F80000
F80000
F80000
F81800
F83F00
7C3E00
7FFC00
3FF800
1FF000
07C000
ENDCHAR

STARTCHAR d
ENCODING 100
SWIDTH 611 0
DWIDTH 20 0
BBX 20 24 1 0
BITMAP
0001F0
0001F0
0001E0
0001E0
0003E0
0003E0
0003E0
07E3C0
1FFBC0
3FFFC0
3E3FC0
7C1F80
780F80
F80F80
F80F80
F00F80
F00F00
F00F00
F81F00
F83F00
FC7F00
7FFE00
7FDE00
1F9E00
ENDCHAR

STARTCHAR e
ENCODING 101
SWIDTH 556 0
DWIDTH 18 0
BBX 16 17 1 0
BITMAP
03F8
0FFC
3FFE
3E1F
7C1F
780F
F80F
FFFF
FFFF
FFFF
F000
F000
F83E
7C7E
3FFC
1FF8
0FE0
ENDCHAR

STARTCHAR f
ENCODING 102
SWIDTH 333 0
DWIDTH 11 0
BBX 14 24 1 0
BITMAP
03FC
07F8
07F8
0F88
0F80
0F00
0F00
7FE0
7FE0
FFE0
1E00
3E00
3E00
3E00
3C00
3C00
7C00
7C00
7C00
7800
7800
F800
F800
F800
ENDCHAR

STARTCHAR g
ENCODING 103
SWIDTH 611 0
DWIDTH 20 0
BBX 19 24 0 -7
BITMAP
03F1E0
0FF9E0
1FFFE0
1F1FE0
3E0FC0
3C07C0
7C07C0
7C07C0
7807C0
780780
780F80
7C0F80
7C1F80
7E3F80
3FFF00
3FEF00
0F9F00
001F00
E01E00
F83E00
FC7E00
FFFC00
7FF800
1FE000
ENDCHAR

STARTCHAR h
ENCODING 104
SWIDTH 611 0
DWIDTH 20 0
BBX 18 24 1 0
BITMAP
078000
0F8000
0F8000
0F8000
0F0000
0F0000
1F0000
1F3F00
1F7F80
1FFFC0
1FCFC0
3F07C0
3E07C0
3E07C0
3C0780
7C0F80
7C0F80
7C0F80
7C0F00
780F00
F81F00
F81F00
F81F00
F01E00
ENDCHAR

STARTCHAR i
ENCODING 105
SWIDTH 278 0
DWIDTH 9 0
BBX 10 24 0 0
BITMAP
07C0
07C0
0780
0F80
0000
0000
0000
0F80
0F00
1F00
1F00
1F00
1E00
1E00
3E00
3E00
3E00
3C00
7C00
7C00
7C00
7C00
7800
F800
ENDCHAR

STARTCHAR j
ENCODING 106
SWIDTH 278 0
DWIDTH 9 0
BBX 14 31 -4 -7
BITMAP
007C
007C
007C
0078
0000
0000
0000
00F8
00F0
01F0
01F0
01F0
01F0
01E0
03E0
03E0
03E0
03C0
03C0
07C0
07C0
07C0
0780
0780
0F80
0F80
1F80
FF00
FF00
FE00
FC00
ENDCHAR

STARTCHAR k
ENCODING 107
SWIDTH 556 0
DWIDTH 18 0
BBX 20 24 0 0
BITMAP
07C000
07C000
07C000
078000
078000
0F8000
0F8000
0F87F0
0F0FC0
1F1F80
1F3F00
1F7E00
1F7800
1FF800
3FF800
3FF800
3FBC00
3F3C00
3E3C00
7C3E00
7C1E00
7C1F00
781F00
F80F00
ENDCHAR

STARTCHAR l
ENCODING 108
SWIDTH 278 0
DWIDTH 9 0
BBX 10 24 0 0
BITMAP
07C0
07C0
0780
0780
0F80
0F80
0F80
0F00
0F00
1F00
1F00
1F00
1E00
1E00
3E00
3E00
3E00
3C00
7C00
7C00
7C00
7800
7800
F800
ENDCHAR

STARTCHAR m
ENCODING 109
SWIDTH 889 0
DWIDTH 29 0
BBX 28 17 0 0
BITMAP
0F3F0FC0
0F7F9FE0
1FFFBFF0
1FC7F1F0
1F87E1F0
1F07C1F0
1E07C1E0
3E0F81E0
3E0F83E0
3E0F83E0
3C0F03E0
7C0F03C0
7C1F07C0
7C1F07C0
781F07C0
781E0780
F83E0780
ENDCHAR

STARTCHAR n
ENCODING 110
SWIDTH 611 0
DWIDTH 20 0
BBX 18 17 1 0
BITMAP
1F3F00
1EFF80
1FFFC0
1FC7C0
3F07C0
3E07C0
3E07C0
3C0780
3C0F80
7C0F80
7C0F80
7C0F00
780F00
F81F00
F81F00
F81F00
F01E00
ENDCHAR

STARTCHAR o
ENCODING 111
SWIDTH 611 0
DWIDTH 20 0
BBX 18 17 1 0
BITMAP
03FC00
0FFE00
1FFF00
3F0F80
7E0780
7C07C0
7807C0
F807C0
F807C0
F80780
F80F80
F80F80
7C1F00
7FFE00
3FFE00
1FF800
03C000
ENDCHAR

STARTCHAR p
ENCODING 112
SWIDTH 611 0
DWIDTH 20 0
BBX 20 23 -1 -6
BITMAP
079F80
07BFE0
07FFE0
0FE3F0
0FC1F0
0F80F0
0F00F0
1F00F0
1F00F0
1F01F0
1F01F0
1F01E0
3F83E0
3FCFC0
3FFFC0
3DFF00
3C7E00
7C0000
7C0000
7C0000
780000
780000
F80000
ENDCHAR

STARTCHAR q
ENCODING 113
SWIDTH 611 0
DWIDTH 20 0
BBX 18 23 1 -6
BITMAP
07E3C0
1FFBC0
3FFBC0
3E3FC0
7C1FC0
780F80
F80F80
F80F80
F00F80
F00F00
F00F00
F01F00
F83F00
FC7F00
7FFE00
3FFE00
1FBE00
003E00
003E00
003C00
007C00
007C00
007C00
ENDCHAR

STARTCHAR r
ENCODING 114
SWIDTH 389 0
DWIDTH 13 0
BBX 15 17 0 0
BITMAP
0F1E
0F7C
1E7C
1FF8
1FC0
1F80
3F00
3E00
3E00
3E00
3C00
7C00
7C00
7C00
7800
7800
F800
ENDCHAR

STARTCHAR s
ENCODING 115
SWIDTH 556 0
DWIDTH 18 0
BBX 18 17 0 0
BITMAP
01FE00
07FF00
0FFF80
1F0FC0
1E0700
1F0000
1FE000
0FFC00
07FF00
01FF00
003F80
080F80
F80F80
7E1F00
3FFF00
1FFE00
07F800
ENDCHAR

STARTCHAR t
ENCODING 116
SWIDTH 333 0
DWIDTH 11 0
BBX 10 23 2 0
BITMAP
0080
0300
0F00
1F00
1F00
1F00
FFC0
FFC0
FFC0
3E00
3C00
3C00
7C00
7C00
7C00
7800
7800
F800
F800
FF00
FF00
7E00
1E00
ENDCHAR

STARTCHAR u
ENCODING 117
SWIDTH 611 0
DWIDTH 20 0
BBX 18 17 1 0
BITMAP
1E03C0
3E07C0
3E07C0
3E07C0
3C0780
3C0F80
7C0F80
7C0F80
7C0F00
780F00
F81F00
F81F00
F83F00
FCFE00
7FEE00
7FDE00
3F3E00
ENDCHAR

STARTCHAR v
ENCODING 118
SWIDTH 556 0
DWIDTH 18 0
BBX 18 17 2 0
BITMAP
F00FC0
F80F80
F81F00
F81F00
783E00
787C00
787C00
78F800
7CF000
3DF000
3FE000
3FC000
3FC000
3F8000
1F8000
1F0000
1E0000
ENDCHAR

STARTCHAR w
ENCODING 119
SWIDTH 778 0
DWIDTH 26 0
BBX 26 17 1 0
BITMAP
F81E07C0
783E0780
783E0F80
787F0F00
787F1F00
787F1E00
78F73E00
78F73C00
39EF7C00
3DEF7800
3DCF7800
3FC7F000
3F87F000
3F87E000
3F07E000
3F07C000
1E078000
ENDCHAR

STARTCHAR x
ENCODING 120
SWIDTH 556 0
DWIDTH 18 0
BBX 20 17 -1 0
BITMAP
1F03F0
0F83E0
0F87C0
07CF80
07DF00
03FF00
03FE00
01FC00
01F800
03F800
07F800
0FFC00
1FBE00
1F3E00
3E1F00
7C1F00
F80F80
ENDCHAR

STARTCHAR y
ENCODING 121
SWIDTH 556 0
DWIDTH 18 0
BBX 21 24 -1 -7
BITMAP
1F00F8
1F01F0
1F01E0
0F03E0
0F07C0
0F07C0
0F8F80
0F8F80
0F9F00
079E00
07BE00
07BC00
07BC00
07F800
07F800
03F000
03E000
03E000
07C000
0FC000
7F8000
7F0000
FE0000
7C0000
ENDCHAR

STARTCHAR z
ENCODING 122
SWIDTH 500 0
DWIDTH 17 0
BBX 16 17 0 0
BITMAP
1FFF
1FFF
3FFF
3FBE
007C
00F8
01F0
03F0
07E0
0FC0
1F80
3F00
3C00
7FFE
FFFC
FFFC
FFFC
ENDCHAR

STARTCHAR braceleft
ENCODING 123
SWIDTH 389 0
DWIDTH 13 0
BBX 15 31 1 -7
BITMAP
003E
00FE
01FC
01FC
01E0
03E0
03C0
03C0
03C0
07C0
0780
0F80
0F00
7F00
7E00
7800
FC00
7E00
3E00
1E00
1E00
1E00
1E00
3C00
3C00
3C00
3C00
3F80
3F80
1F80
0F00
ENDCHAR

STARTCHAR bar
ENCODING 124
SWIDTH 280 0
DWIDTH 9 0
BBX 4 31 3 -7
BITMAP
F0
F0
F0
F0
F0
F0
F0
F0
F0
F0
F0
F0
F0
F0
F0
F0
F0
F0
F0
F0
F0
F0
F0
F0
F0
F0
F0
F0
F0
F0
F0
ENDCHAR

STARTCHAR braceright
ENCODING 125
SWIDTH 389 0
DWIDTH 13 0
BBX 15 31 -3 -7
BITMAP
01E0
03F8
03F8
03F8
0078
0078
0078
00F8
00F0
00F0
00F0
00F0
00F8
00FC
007E
003C
00FC
01F8
01E0
03E0
03C0
07C0
0780
0780
0780
0F80
0F00
7F00
7E00
FE00
F000
ENDCHAR

STARTCHAR asciitilde
ENCODING 126
SWIDTH 584 0
DWIDTH 19 0
BBX 17 6 2 9
BITMAP
3F0080
FFC380
FFFF80
FFFF80
C1FF00
803C00
ENDCHAR

STARTCHAR space
ENCODING 160
SWIDTH 278 0
DWIDTH 11 0
BBX 0 0 0 0
BITMAP
ENDCHAR

STARTCHAR afii10023
ENCODING 161
SWIDTH 667 0
DWIDTH 22 0
BBX 22 29 1 0
BITMAP
0078F0
00F8F0
00F1F0
00F1E0
000000
0FFFFC
0FFFFC
0FFFF8
0FFFF8
0F0000
1F0000
1F0000
1F0000
1F0000
3FFFF0
3FFFE0
3FFFE0
3FFFE0
3C0000
7C0000
7C0000
7C0000
7C0000
780000
F80000
FFFFE0
FFFFC0
FFFFC0
FFFFC0
ENDCHAR

STARTCHAR afii10051
ENCODING 162
SWIDTH 886 0
DWIDTH 29 0
BBX 25 24 3 0
BITMAP
7FFFF000
7FFFF000
7FFFE000
FFFFE000
01F00000
01F00000
01F00000
01E00000
03E7F000
03FFFC00
03FFFE00
03FFFF00
07FC3F00
07E00F80
07C00F80
07C00F80
07800F80
0F800F80
0F801F00
0F803F00
0F87FE00
1F07FC00
1F0FF800
1F0FE000
ENDCHAR

STARTCHAR afii10052
ENCODING 163
SWIDTH 627 0
DWIDTH 21 0
BBX 22 29 1 0
BITMAP
000FE0
001F00
003E00
007800
000000
07FFFC
0FFFFC
0FFFFC
0FFFF8
0F8000
0F0000
1F0000
1F0000
1F0000
1E0000
3E0000
3E0000
3E0000
3E0000
3C0000
7C0000
7C0000
7C0000
7C0000
780000
F80000
F80000
F80000
F80000
ENDCHAR

STARTCHAR afii10053
ENCODING 164
SWIDTH 719 0
DWIDTH 24 0
BBX 22 24 2 0
BITMAP
007F00
01FFC0
07FFE0
0FFFF0
1FC1F8
1F80F8
3F007C
7E007C
7C0000
7C0000
7FF800
FFF800
FFF800
FFF800
F80000
F800C0
FC01F0
7C03F0
7C03E0
7F0FE0
3FFFC0
1FFF80
0FFE00
03F800
ENDCHAR

STARTCHAR afii10054
ENCODING 165
SWIDTH 667 0
DWIDTH 22 0
BBX 21 24 1 0
BITMAP
00FE00
03FF80
07FFE0
0FFFE0
0F83F0
1F01F0
1F00F8
1F0000
1FC000
0FF000
0FFC00
03FF00
01FF80
007FC0
000FE0
0007E0
F803E0
F803E0
7C03E0
7E0FC0
7FFFC0
3FFF80
1FFE00
03F800
ENDCHAR

STARTCHAR afii10055
ENCODING 166
SWIDTH 278 0
DWIDTH 9 0
BBX 10 24 0 0
BITMAP
07C0
07C0
07C0
0F80
0F80
0F80
0F80
0F80
1F00
1F00
1F00
1F00
1E00
3E00
3E00
3E00
3E00
3C00
7C00
7C00
7C00
7C00
7800
F800
ENDCHAR

STARTCHAR afii10056
ENCODING 167
SWIDTH 278 0
DWIDTH 9 0
BBX 15 29 0 0
BITMAP
1E3E
1E3C
3E3C
3C7C
0000
07C0
07C0
07C0
0F80
0F80
0F80
0F80
0F80
1F00
1F00
1F00
1F00
1E00
3E00
3E00
3E00
3E00
3C00
7C00
7C00
7C00
7C00
7800
F800
ENDCHAR

STARTCHAR afii10057
ENCODING 168
SWIDTH 556 0
DWIDTH 18 0
BBX 19 24 0 0
BITMAP
0003E0
0003C0
0007C0
0007C0
0007C0
000780
000F80
000F80
000F80
000F80
000F00
001F00
001F00
001F00
001F00
001E00
103E00
F03E00
F03E00
F87C00
FFFC00
7FF800
3FF000
1FC000
ENDCHAR

STARTCHAR afii10058
ENCODING 169
SWIDTH 1125 0
DWIDTH 37 0
BBX 37 24 -1 0
BITMAP
00FFFFC000
00FFFF8000
00FFFF8000
00FFFF8000
01F00F8000
01F00F0000
01F01F0000
01F01F0000
03E01F0000
03E01FFF80
03E01FFFE0
03E03FFFF0
03C03FFFF0
07C03E03F8
07C03E00F8
07C03C00F8
07C07C00F8
07807C00F8
0F807C01F8
1F807803F0
FF007FFFE0
FF00FFFFE0
FE00FFFF80
FC00FFFE00
ENDCHAR

STARTCHAR afii10059
ENCODING 170
SWIDTH 1042 0
DWIDTH 34 0
BBX 32 24 1 0
BITMAP
0F80F800
0F81F000
0F81F000
0F81F000
0F01F000
1F01E000
1F03E000
1F03E000
1F03E000
1FFFFFE0
3FFFFFFC
3FFFFFFE
3FFFFFFE
3E07C07F
3C07C01F
7C07801F
7C0F801F
7C0F801F
7C0F803F
780F007E
F80FFFFE
F81FFFFC
F81FFFF0
F81FFFC0
ENDCHAR

STARTCHAR afii10060
ENCODING 171
SWIDTH 861 0
DWIDTH 28 0
BBX 23 24 4 0
BITMAP
FFFFE0
FFFFE0
FFFFE0
FDFFC0
03E000
03E000
03E000
03E000
03CFF0
07FFFC
07FFFC
07FFFE
07E07E
07803E
0F803E
0F803E
0F803E
0F803C
1F007C
1F007C
1F007C
1F007C
1E0078
3E00F8
ENDCHAR

STARTCHAR afii10061
ENCODING 172
SWIDTH 644 0
DWIDTH 21 0
BBX 22 29 1 0
BITMAP
0007E0
000F80
001F00
003C00
000000
07C07C
0F80FC
0F81FC
0F83E0
0F87C0
0F0780
1F0F80
1F0F00
1F1F00
1E3E00
3FFC00
3FF000
3FF800
3EFC00
3C7E00
7C3E00
7C3E00
7C1F00
7C1F00
781F00
F81F00
F80F80
F80F80
F80F80
ENDCHAR

STARTCHAR hyphen
ENCODING 173
SWIDTH 333 0
DWIDTH 11 0
BBX 10 4 0 7
BITMAP
7FC0
7FC0
7FC0
FFC0
ENDCHAR

STARTCHAR afii10062
ENCODING 174
SWIDTH 677 0
DWIDTH 22 0
BBX 23 29 2 0
BITMAP
00E0E0
00F1C0
007F80
001E00
000000
7E003E
3E007C
3F007C
3F00F8
1F01F0
1F03E0
1F83E0
0F87C0
0F8F80
0F8F80
07DF00
07DE00
07FC00
03FC00
03F800
03F000
01E000
03E000
03C000
0F8000
FF0000
FF0000
FE0000
F80000
ENDCHAR

STARTCHAR afii10145
ENCODING 175
SWIDTH 722 0
DWIDTH 24 0
BBX 23 30 1 -6
BITMAP
0F803E
0F803E
0F803E
0F803E
0F803E
1F007C
1F007C
1F007C
1F007C
1F007C
3E00F8
3E00F8
3E00F8
3E00F8
3C00F0
7C01F0
7C01F0
7C01F0
7C01F0
7801E0
FFFFE0
FFFFE0
FFFFE0
FFFFE0
01E000
01E000
01E000
03C000
03C000
03C000
ENDCHAR

STARTCHAR afii10017
ENCODING 176
SWIDTH 722 0
DWIDTH 24 0
BBX 22 24 -1 0
BITMAP
0007E0
000FE0
000FE0
001FE0
001FE0
003EE0
003DF0
007DF0
00F8F0
00F8F0
01F0F0
01F0F0
03E0F8
03E0F8
07C0F8
0FFFF8
0FFFF8
1FFFF8
1FFFFC
3E007C
3E007C
7C007C
7C003C
F8003C
ENDCHAR

STARTCHAR afii10018
ENCODING 177
SWIDTH 708 0
DWIDTH 23 0
BBX 22 24 1 0
BITMAP
07FFFC
0FFFF8
0FFFF8
0FFFF8
0F8000
0F8000
1F0000
1F0000
1F0000
1FFF80
1FFFE0
3FFFF0
3FFFF0
3E03F8
3E00F8
3C00F8
7C00F8
7C00F8
7C01F8
7803F0
FFFFF0
FFFFE0
FFFF80
FFFE00
ENDCHAR

STARTCHAR afii10019
ENCODING 178
SWIDTH 722 0
DWIDTH 24 0
BBX 22 24 1 0
BITMAP
07FFC0
0FFFF0
0FFFF8
0FFFFC
0F80FC
0F007C
1F007C
1F007C
1F00F8
1F01F8
1FFFF0
3FFF80
3FFFE0
3FFFF0
3C01F8
3C00F8
7C00F8
7C00F8
7C01F8
7803F0
7FFFF0
FFFFE0
FFFF80
FFFE00
ENDCHAR

STARTCHAR afii10020
ENCODING 179
SWIDTH 627 0
DWIDTH 21 0
BBX 22 24 1 0
BITMAP
07FFFC
0FFFFC
0FFFFC
0FFFF8
0F8000
0F0000
1F0000
1F0000
1F0000
1E0000
3E0000
3E0000
3E0000
3E0000
3C0000
7C0000
7C0000
7C0000
7C0000
780000
F80000
F80000
F80000
F80000
ENDCHAR

STARTCHAR afii10021
ENCODING 180
SWIDTH 722 0
DWIDTH 24 0
BBX 27 30 -3 -6
BITMAP
003FFFE0
003FFFE0
003FFFE0
003FFFC0
003C07C0
007C07C0
007C07C0
007C07C0
00780F80
00F80F80
00F80F80
00F80F80
01F00F00
01F01F00
01F01F00
03E01F00
03E01F00
07C01E00
07C03E00
0F803E00
3FFFFF80
3FFFFF80
7FFFFF00
7FFFFF00
78000F00
78000F00
F0000F00
F0001E00
F0001E00
F0001E00
ENDCHAR

STARTCHAR afii10022
ENCODING 181
SWIDTH 667 0
DWIDTH 22 0
BBX 22 24 1 0
BITMAP
0FFFFC
0FFFFC
0FFFF8
0FFFF8
0F0000
1F0000
1F0000
1F0000
1F0000
3FFFF0
3FFFE0
3FFFE0
3FFFE0
3C0000
7C0000
7C0000
7C0000
7C0000
780000
F80000
FFFFE0
FFFFC0
FFFFC0
FFFFC0
ENDCHAR

STARTCHAR afii10024
ENCODING 182
SWIDTH 927 0
DWIDTH 31 0
BBX 34 24 -1 0
BITMAP
07807C07C0
07C07C1F80
07E0783F80
0FE0F87F80
01F0F87C00
00F0F8F800
00F0F8F000
00F1F1F000
00F9F1E000
0079F3E000
007FFFC000
003FFE0000
007FFF8000
01FFFFC000
03F3E7C000
03E3E7C000
07E3C3E000
0FC7C3E000
1F87C3E000
1F87C1F000
3F07C1F000
7E0781F000
7C0F81F000
FC0F80F800
ENDCHAR

STARTCHAR afii10025
ENCODING 183
SWIDTH 642 0
DWIDTH 21 0
BBX 20 24 0 0
BITMAP
00FE00
03FF80
07FFC0
0FFFE0
0FC3F0
1F01F0
0301F0
0001F0
0003F0
0007E0
007FC0
007E80
007F00
00FF80
0007C0
0003C0
0003E0
1803E0
FC07E0
7E0FC0
7FFFC0
3FFF80
1FFF00
03F800
ENDCHAR

STARTCHAR afii10026
ENCODING 184
SWIDTH 722 0
DWIDTH 24 0
BBX 23 24 1 0
BITMAP
07801E
0F803E
0F807E
0F80FE
0F01FE
0F03FC
1F03FC
1F07FC
1E0FBC
1E1F78
3E3E78
3E7CF8
3E7CF8
3CF8F8
3DF0F0
7DE0F0
7FC1F0
7F81F0
7F81F0
7F01E0
FE01E0
FC03E0
F803E0
F003C0
ENDCHAR

STARTCHAR afii10027
ENCODING 185
SWIDTH 722 0
DWIDTH 24 0
BBX 23 29 1 0
BITMAP
003838
001C70
001FE0
0007C0
000000
07801E
0F803E
0F807E
0F80FE
0F01FE
0F03FC
1F03FC
1F07FC
1E0FBC
1E1F78
3E3E78
3E7CF8
3E7CF8
3CF8F8
3DF0F0
7DE0F0
7FC1F0
7F81F0
7F81F0
7F01E0
FE01E0
FC03E0
F803E0
F003C0
ENDCHAR

STARTCHAR afii10028
ENCODING 186
SWIDTH 644 0
DWIDTH 21 0
BBX 22 24 1 0
BITMAP
07C07C
0F80FC
0F81FC
0F83E0
0F87C0
0F0780
1F0F80
1F0F00
1F1F00
1E3E00
3FFC00
3FF000
3FF800
3EFC00
3C7E00
7C3E00
7C3E00
7C1F00
7C1F00
781F00
F81F00
F80F80
F80F80
F80F80
ENDCHAR

STARTCHAR afii10029
ENCODING 187
SWIDTH 722 0
DWIDTH 24 0
BBX 25 24 -1 0
BITMAP
00FFFF80
00FFFF80
01FFFF80
01FFFF80
01F00F80
01F01F00
01F01F00
03E01F00
03E01F00
03E01E00
03E03E00
03C03E00
07C03E00
07C03E00
07C03C00
07C07C00
07807C00
0F807C00
0F807C00
1F80F800
FF00F800
FF00F800
FE00F800
FC00F800
ENDCHAR

STARTCHAR afii10030
ENCODING 188
SWIDTH 833 0
DWIDTH 27 0
BBX 28 24 0 0
BITMAP
07F007F0
07F00FF0
07F00FF0
07F81FE0
07781EE0
0F781EE0
0F783DE0
0F783DE0
0F787BC0
1F787BC0
1E78F3C0
1E78F3C0
1E79E7C0
1E79E780
3E7BC780
3C7BC780
3C7BCF80
3C7F8F80
3C7F8F00
7C7F0F00
7C7F0F00
787E1F00
787E1E00
F87C1E00
ENDCHAR

STARTCHAR afii10031
ENCODING 189
SWIDTH 722 0
DWIDTH 24 0
BBX 23 24 1 0
BITMAP
0F803E
0F803E
0F803E
0F803E
0F803E
1F007C
1F007C
1F007C
1F007C
1FFFFC
3FFFF8
3FFFF8
3FFFF8
3E00F8
3C01F0
7C01F0
7C01F0
7C01F0
7C01F0
7803E0
F803E0
F803E0
F803E0
F803E0
ENDCHAR

STARTCHAR afii10032
ENCODING 190
SWIDTH 778 0
DWIDTH 26 0
BBX 23 24 2 0
BITMAP
007F80
01FFE0
07FFF0
0FFFF8
0FC1FC
1F807C
3F007E
3E003E
7C003E
7C003E
78003E
F8003E
F8003E
F8003C
F8007C
F8007C
F800F8
7C01F8
7C03F0
7F07E0
3FFFE0
1FFF80
0FFF00
03F800
ENDCHAR

STARTCHAR afii10033
ENCODING 191
SWIDTH 722 0
DWIDTH 24 0
BBX 23 24 1 0
BITMAP
0FFFFE
0FFFFE
0FFFFE
0FFFFE
0F803E
1F007C
1F007C
1F007C
1F007C
1E0078
3E00F8
3E00F8
3E00F8
3E00F8
3C00F0
7C01F0
7C01F0
7C01F0
7C01F0
7801E0
F803E0
F803E0
F803E0
F803E0
ENDCHAR

STARTCHAR afii10034
ENCODING 192
SWIDTH 667 0
DWIDTH 22 0
BBX 22 24 0 0
BITMAP
07FFC0
07FFF0
07FFF8
0FFFFC
0F80FC
0F807C
0F807C
1F007C
1F007C
1F00F8
1F03F8
1FFFF0
3FFFF0
3FFFC0
3FFE00
3E0000
3C0000
7C0000
7C0000
7C0000
7C0000
780000
F80000
F80000
ENDCHAR

STARTCHAR afii10035
ENCODING 193
SWIDTH 722 0
DWIDTH 24 0
BBX 22 24 2 0
BITMAP
007F00
01FFC0
07FFE0
0FFFF0
1FC1F8
3F80F8
3F0078
7E007C
7C0000
7C0000
F80000
F80000
F80000
F80000
F80000
F80180
F801F0
7C03F0
7C07E0
7F0FE0
3FFFC0
1FFF80
0FFE00
03F800
ENDCHAR

STARTCHAR afii10036
ENCODING 194
SWIDTH 611 0
DWIDTH 20 0
BBX 20 24 3 0
BITMAP
7FFFF0
7FFFE0
FFFFE0
FFFFE0
01F000
01F000
03E000
03E000
03E000
03E000
03C000
07C000
07C000
07C000
07C000
078000
0F8000
0F8000
0F8000
0F8000
1F0000
1F0000
1F0000
1F0000
ENDCHAR

STARTCHAR afii10037
ENCODING 195
SWIDTH 677 0
DWIDTH 22 0
BBX 23 24 2 0
BITMAP
7E003E
3E007C
3F00FC
3F00F8
1F01F0
1F03E0
1F83E0
0F87C0
0F8F80
0F8F80
07DF00
07DE00
07FC00
03FC00
03F800
03F000
01E000
03E000
03C000
0F8000
FF0000
FF0000
FE0000
F80000
ENDCHAR

STARTCHAR afii10038
ENCODING 196
SWIDTH 781 0
DWIDTH 26 0
BBX 23 24 2 0
BITMAP
000F00
001F00
001F00
00FFE0
03FFF8
0FFFF8
1FFFFC
3FBE7E
7E3C3E
7C3C3E
7C3C3E
F87C3E
F87C3E
F8787C
F8787C
F8F8FC
7EFBF8
7FFFF0
3FFFE0
1FFF80
07FE00
01F000
01E000
01E000
ENDCHAR

STARTCHAR afii10039
ENCODING 197
SWIDTH 667 0
DWIDTH 22 0
BBX 27 24 -2 0
BITMAP
07C007E0
07E00FC0
03E01F80
03F03F00
01F07E00
01F8FC00
00F9FC00
00FDF800
007FF000
007FE000
003FC000
001F8000
003F0000
007F8000
00FF8000
01FFC000
03FBC000
03F3E000
07E3E000
0FC3F000
1F81F000
3F81F800
7F00F800
FE00FC00
ENDCHAR

STARTCHAR afii10040
ENCODING 198
SWIDTH 729 0
DWIDTH 24 0
BBX 23 30 1 -6
BITMAP
07C01E
0F803E
0F803E
0F803E
0F803E
0F003C
1F007C
1F007C
1F007C
1F0078
3E00F8
3E00F8
3E00F8
3E00F8
3C00F0
7C01F0
7C01F0
7C01F0
7C01F0
7801E0
FFFFF8
FFFFF8
FFFFF8
FFFFF8
0000F0
0000F0
0000F0
0000F0
0000F0
0001E0
ENDCHAR

STARTCHAR afii10041
ENCODING 199
SWIDTH 645 0
DWIDTH 21 0
BBX 21 24 1 0
BITMAP
3E00F8
3C01F0
7C01F0
7C01F0
7C01F0
7C01E0
7803E0
F803E0
F803E0
F803E0
F803C0
FE1FC0
FFFFC0
7FFFC0
3FFFC0
0FC780
000F80
000F80
000F80
000F00
001F00
001F00
001F00
001F00
ENDCHAR

STARTCHAR afii10042
ENCODING 200
SWIDTH 979 0
DWIDTH 32 0
BBX 32 24 1 0
BITMAP
07C0F81F
0F80F01F
0F81F01E
0F81F03E
0F81F03E
0F01F03E
1F03E03E
1F03E03C
1F03E07C
1F03E07C
3E03C07C
3E07C07C
3E07C078
3E07C0F8
3C07C0F8
7C0780F8
7C0F80F0
7C0F81F0
7C0F81F0
780F81F0
FFFFFFF0
FFFFFFE0
FFFFFFE0
FFFFFFE0
ENDCHAR

STARTCHAR afii10043
ENCODING 201
SWIDTH 989 0
DWIDTH 33 0
BBX 32 30 1 -6
BITMAP
07C0F81F
0F80F01F
0F81F01E
0F81F03E
0F81F03E
0F01F03E
1F03E03E
1F03E03C
1F03E07C
1F03E07C
3E03C07C
3E07C078
3E07C078
3E07C0F8
3C07C0F8
7C0780F8
7C0F80F0
7C0F81F0
7C0F81F0
780F81F0
FFFFFFFC
FFFFFFF8
FFFFFFF8
FFFFFFF8
00000078
00000078
000000F0
000000F0
000000F0
000000F0
ENDCHAR

STARTCHAR afii10044
ENCODING 202
SWIDTH 854 0
DWIDTH 28 0
BBX 24 24 3 0
BITMAP
7FF800
FFF000
FFF000
FFF000
01F000
01E000
03E000
03E000
03E000
03FFF0
03FFFC
07FFFE
07FFFE
07C07F
07C01F
07801F
0F801F
0F801F
0F803F
0F007E
1FFFFE
1FFFFC
1FFFF0
1FFFC0
ENDCHAR

STARTCHAR afii10045
ENCODING 203
SWIDTH 1000 0
DWIDTH 33 0
BBX 33 24 1 0
BITMAP
07C0000F80
0780001F00
0F80001F00
0F80001F00
0F80001F00
0F80001E00
1F00003E00
1F00003E00
1F00003E00
1FFF803E00
1FFFE03C00
3FFFF07C00
3FFFF07C00
3E03F87C00
3E00F87C00
3C00F8F800
7C00F8F800
7C00F8F800
7C01F8F800
7803F0F800
FFFFF1F000
FFFFE1F000
FFFF81F000
FFFE01F000
ENDCHAR

STARTCHAR afii10046
ENCODING 204
SWIDTH 706 0
DWIDTH 23 0
BBX 21 24 1 0
BITMAP
07C000
078000
0F8000
0F8000
0F8000
0F8000
1F0000
1F0000
1F0000
1FFF80
1FFFE0
3FFFF0
3FFFF0
3E03F8
3E00F8
3C00F8
7C00F8
7C00F8
7C01F8
7803F0
FFFFF0
FFFFE0
FFFF80
FFFE00
ENDCHAR

STARTCHAR afii10047
ENCODING 205
SWIDTH 719 0
DWIDTH 24 0
BBX 22 24 1 0
BITMAP
00FF00
03FFC0
07FFE0
0FFFF0
1FC3F8
1F00F8
3E00FC
02007C
00007C
00007C
003FFC
007FFC
007FFC
007FFC
0000F8
0800F8
3801F8
FC03F0
7C03F0
7F0FE0
3FFFC0
1FFF80
0FFE00
03F800
ENDCHAR

STARTCHAR afii10048
ENCODING 206
SWIDTH 1041 0
DWIDTH 34 0
BBX 33 24 1 0
BITMAP
07C01FE000
07C07FF800
07C0FFFC00
0781FFFE00
0F83F87F00
0F87E01F00
0F87C01F80
0F87C00F80
0F0F800F80
1F0F800F80
1FFF000F80
1FFF000F80
1FFF000F80
1FFF000F80
3E1F000F00
3E1F001F00
3E1F001F00
3C1F803E00
7C0FC07E00
7C0FE1FC00
7C07FFF800
7C03FFF000
7801FFE000
F8003F8000
ENDCHAR

STARTCHAR afii10049
ENCODING 207
SWIDTH 729 0
DWIDTH 24 0
BBX 26 24 -1 0
BITMAP
003FFFC0
00FFFFC0
01FFFFC0
03FFFF80
03F00F80
07C00F80
07C00F80
07C00F00
07C01F00
07E01F00
03FFFF00
03FFFF00
00BFFE00
007FFE00
00FE3E00
01F83E00
03F03E00
07E03C00
0FC07C00
1FC07C00
1F807C00
3F007C00
7E007800
FC00F800
ENDCHAR

STARTCHAR afii10065
ENCODING 208
SWIDTH 556 0
DWIDTH 18 0
BBX 16 17 1 0
BITMAP
07F8
0FFE
1FFF
3F1F
3E0F
000F
003F
1FFF
7FFF
7F1E
F83E
F03E
F07E
F8FE
FFFC
7FBE
3F3E
ENDCHAR

STARTCHAR afii10066
ENCODING 209
SWIDTH 619 0
DWIDTH 20 0
BBX 20 25 1 0
BITMAP
0000F0
003FE0
00FFE0
03FFE0
07FFC0
0FC000
0F0000
1E0000
1CFC00
3FFF00
3FFF80
7F1F80
7E07C0
7C07C0
F807C0
F807C0
F807C0
F807C0
F80F80
780F80
7C1F00
7FFF00
3FFE00
1FF800
03E000
ENDCHAR

STARTCHAR afii10067
ENCODING 210
SWIDTH 589 0
DWIDTH 19 0
BBX 17 17 1 0
BITMAP
01FE00
07FF00
1FFF80
3F0F80
3C0780
7C0780
780F00
7FFE00
7FF800
FFFE00
F81F00
F80F00
780F00
7C1F00
3FFE00
1FFC00
0FF000
ENDCHAR

STARTCHAR afii10068
ENCODING 211
SWIDTH 534 0
DWIDTH 18 0
BBX 16 17 0 0
BITMAP
07F8
0FFE
1FFF
3E1F
0C0F
001F
007F
0FFE
3FF8
7FC0
FC00
F000
F01F
F87E
7FFC
3FF8
1FE0
ENDCHAR

STARTCHAR afii10069
ENCODING 212
SWIDTH 618 0
DWIDTH 20 0
BBX 19 24 1 0
BITMAP
00FE00
00FF80
00FFC0
0007C0
0003E0
0001E0
0001E0
03F9E0
0FFEE0
1FFFE0
3F87E0
3E03E0
7C03E0
7C03E0
F803C0
F803C0
F807C0
F80780
F80F80
7C1F00
7FFF00
3FFE00
1FF800
03E000
ENDCHAR

STARTCHAR afii10070
ENCODING 213
SWIDTH 556 0
DWIDTH 18 0
BBX 16 17 1 0
BITMAP
03F8
0FFC
3FFE
3E1F
7C1F
780F
F80F
FFFF
FFFF
FFFF
F000
F000
F83E
7C7E
3FFC
1FF8
0FE0
ENDCHAR

STARTCHAR afii10072
ENCODING 214
SWIDTH 736 0
DWIDTH 24 0
BBX 27 17 -2 0
BITMAP
0703C1E0
0F87C3E0
0FC7C7E0
03C7C780
01C78F00
01C78F00
01EF9E00
00FFFC00
00FFF000
03EFFC00
07DF3C00
0F9F3E00
0F1F1E00
1F1E1E00
3E1E1F00
7C3E0F00
FC3E0F00
ENDCHAR

STARTCHAR afii10073
ENCODING 215
SWIDTH 510 0
DWIDTH 17 0
BBX 15 17 0 0
BITMAP
03F0
0FFC
1FFE
3E3E
0C1E
001E
003C
01E8
01F0
01FC
003C
003E
F83E
F87C
7FFC
3FF8
0FE0
ENDCHAR

STARTCHAR afii10074
ENCODING 216
SWIDTH 611 0
DWIDTH 20 0
BBX 18 17 1 0
BITMAP
1E03C0
3E07C0
3E07C0
3E07C0
3C0780
3C0F80
7C0F80
7C0F80
7C0F00
780F00
F81F00
F81F00
F83F00
FCFE00
7FEE00
7FDE00
3F3E00
ENDCHAR

STARTCHAR afii10075
ENCODING 217
SWIDTH 611 0
DWIDTH 20 0
BBX 18 24 1 0
BITMAP
038380
03C700
01FE00
00FC00
000000
000000
000000
1E03C0
3E07C0
3E07C0
3E07C0
3C0780
3C0F80
7C0F80
7C0F80
7C0F00
780F00
F81F00
F81F00
F83F00
FCFE00
7FEE00
7FDE00
3F3E00
ENDCHAR

STARTCHAR afii10076
ENCODING 218
SWIDTH 507 0
DWIDTH 17 0
BBX 18 17 0 0
BITMAP
0F83C0
0F0FC0
1F0F80
1F1E00
1F3E00
1E3C00
1E7800
3FF000
3FE000
3FF800
3C7800
7C7800
7C7C00
7C3C00
783C00
783C00
F83E00
ENDCHAR

STARTCHAR afii10077
ENCODING 219
SWIDTH 622 0
DWIDTH 21 0
BBX 22 17 -2 0
BITMAP
01FFFC
01FFFC
01FFFC
01FFF8
03E078
03E0F8
03C0F8
03C0F0
03C0F0
07C1F0
0781F0
0781F0
0F81E0
7F81E0
7F03E0
7F03E0
FC03C0
ENDCHAR

STARTCHAR afii10078
ENCODING 220
SWIDTH 740 0
DWIDTH 24 0
BBX 24 17 0 0
BITMAP
0FC03F
0FC03F
0FC07E
1FC0FE
1FC0FE
1FE1FE
1EE1DC
3DE3DC
3DE7BC
3DE7BC
3DEF3C
38F678
78FE78
78FC78
78FC78
78F870
F0F0F0
ENDCHAR

STARTCHAR afii10079
ENCODING 221
SWIDTH 604 0
DWIDTH 20 0
BBX 20 17 0 0
BITMAP
0F81F0
0F01E0
1F03E0
1F03E0
1F03E0
1E03C0
1FFFC0
3FFFC0
3FFFC0
3FFF80
3C0780
7C0F80
7C0F80
7C0F80
780F00
780F00
F81F00
ENDCHAR

STARTCHAR afii10080
ENCODING 222
SWIDTH 611 0
DWIDTH 20 0
BBX 18 17 1 0
BITMAP
03FC00
0FFE00
1FFF00
3F0F80
7E0780
7C07C0
7807C0
F807C0
F807C0
F80780
F80F80
F80F80
7C1F00
7FFE00
3FFE00
1FF800
03C000
ENDCHAR

STARTCHAR afii10081
ENCODING 223
SWIDTH 604 0
DWIDTH 20 0
BBX 20 17 0 0
BITMAP
0FFFF0
0FFFE0
1FFFE0
1FFFE0
1F03E0
1E03C0
1E03C0
3E07C0
3E07C0
3E0780
3C0780
7C0F80
7C0F80
7C0F80
780F00
780F00
F81F00
ENDCHAR

STARTCHAR afii10082
ENCODING 224
SWIDTH 611 0
DWIDTH 20 0
BBX 20 23 -1 -6
BITMAP
079F80
07BFE0
07FFE0
0FE3F0
0FC1F0
0F80F0
0F00F0
1F00F0
1F00F0
1F01F0
1F01F0
1F01E0
3F83E0
3FCFC0
3FFFC0
3DFF00
3C7E00
7C0000
7C0000
7C0000
780000
780000
F80000
ENDCHAR

STARTCHAR afii10083
ENCODING 225
SWIDTH 556 0
DWIDTH 18 0
BBX 17 17 1 0
BITMAP
03FC00
0FFE00
1FFF00
3F1F80
3E0F80
7C0C00
7C0000
F80000
F80000
F80000
F81800
F83F00
7C3E00
7FFC00
3FF800
1FF000
07C000
ENDCHAR

STARTCHAR afii10084
ENCODING 226
SWIDTH 889 0
DWIDTH 29 0
BBX 28 17 0 0
BITMAP
0F3F0FC0
0F7F9FE0
1FFFBFF0
1FC7F1F0
1F87E1F0
1F07C1F0
1E0781E0
3E0F81E0
3E0F83E0
3E0F83E0
3C0F03E0
7C0F03C0
7C1F07C0
7C1F07C0
781F07C0
781E0780
F83E0780
ENDCHAR

STARTCHAR afii10085
ENCODING 227
SWIDTH 556 0
DWIDTH 18 0
BBX 21 24 -1 -7
BITMAP
1F00F8
1F01F0
1F01E0
0F03E0
0F07C0
0F07C0
0F8F80
0F8F80
0F9F00
079E00
07BE00
07BC00
07BC00
07F800
07F800
03F000
03E000
03E000
07C000
0FC000
7F8000
7F0000
FE0000
7C0000
ENDCHAR

STARTCHAR afii10086
ENCODING 228
SWIDTH 885 0
DWIDTH 29 0
BBX 27 31 1 -7
BITMAP
0003E000
0003E000
0003C000
0007C000
0007C000
0007C000
00078000
07E7BF00
0FF7FF80
1FFFFFC0
3F3FC7C0
3C1F87E0
7C1F03E0
781F03E0
781F03E0
F81E03E0
F81E03C0
F83E07C0
F83E07C0
F87F0F80
7CFF9F80
7FFFFF00
3FFDFE00
1F7CF800
00780000
00780000
00780000
00F80000
00F00000
00F00000
00F00000
ENDCHAR

STARTCHAR afii10087
ENCODING 229
SWIDTH 556 0
DWIDTH 18 0
BBX 20 17 -1 0
BITMAP
1F03F0
0F83E0
0F87C0
07CF80
07DF00
03FF00
03FE00
01FC00
01F800
03F800
07F800
0FFC00
1FBE00
1F3E00
3E1F00
7C1F00
F80F80
ENDCHAR

STARTCHAR afii10088
ENCODING 230
SWIDTH 646 0
DWIDTH 21 0
BBX 19 22 1 -5
BITMAP
1E03C0
1E07C0
3E07C0
3E07C0
3C0780
3C0F80
7C0F80
7C0F80
7C0F00
780F00
781F00
F81F00
F83F00
FCFF00
FFFFE0
7FDFC0
3F0FC0
0003C0
0003C0
000380
000780
000780
ENDCHAR

STARTCHAR afii10089
ENCODING 231
SWIDTH 583 0
DWIDTH 19 0
BBX 17 17 2 0
BITMAP
7C0F80
7C0F00
781F00
781F00
F81F00
F81E00
F81E00
FC3E00
7FFE00
7FFC00
1FBC00
003C00
007C00
007C00
007800
007800
00F800
ENDCHAR

STARTCHAR afii10090
ENCODING 232
SWIDTH 889 0
DWIDTH 29 0
BBX 28 17 1 0
BITMAP
1E07C1F0
1E0781E0
3E0F83E0
3E0F83E0
3E0F83E0
3C0F03E0
7C0F03C0
7C1F07C0
7C1F07C0
781F07C0
783E0780
F83E0F80
F87E1F80
F8FF3F80
FFDFFF80
7F9FEF00
3E0FCF00
ENDCHAR

STARTCHAR afii10091
ENCODING 233
SWIDTH 935 0
DWIDTH 31 0
BBX 28 22 1 -5
BITMAP
1E07C1F0
1E0781E0
3E0F83E0
3E0F83E0
3E0F83E0
3C0F03C0
7C0F03C0
7C1F07C0
7C1F07C0
781F07C0
781E0780
F83E0F80
F87E1F80
F8FF3FC0
FFDFFFF0
7F9FE7F0
3F0FC3E0
000000E0
000001E0
000001E0
000001E0
000003C0
ENDCHAR

STARTCHAR afii10092
ENCODING 234
SWIDTH 694 0
DWIDTH 23 0
BBX 20 17 1 0
BITMAP
7FE000
FFC000
FBC000
07C000
07C000
07C000
078000
07FFC0
0FFFE0
0FFFF0
0F81F0
0F01F0
0F01F0
1F03E0
1FFFE0
1FFFC0
1FFF00
ENDCHAR

STARTCHAR afii10093
ENCODING 235
SWIDTH 836 0
DWIDTH 28 0
BBX 26 17 1 0
BITMAP
1F0003C0
1E0003C0
1E0007C0
3E0007C0
3E0007C0
3E000780
3C000F80
3FFE0F80
7FFF0F80
7FFF8F00
7C0F8F00
780F9F00
780F9F00
F81F1F00
FFFF1E00
FFFE1E00
FFF83E00
ENDCHAR

STARTCHAR afii10094
ENCODING 236
SWIDTH 582 0
DWIDTH 19 0
BBX 17 17 1 0
BITMAP
1F0000
1E0000
1E0000
3E0000
3E0000
3E0000
3C0000
3FFE00
7FFF00
7FFF80
7C0F80
780F80
780F80
F81F00
FFFF00
FFFE00
FFF800
ENDCHAR

STARTCHAR afii10095
ENCODING 237
SWIDTH 552 0
DWIDTH 18 0
BBX 17 17 0 0
BITMAP
01F000
07FC00
1FFE00
1FFF00
3E0F00
000F80
000F80
01FF80
01FF80
01EF80
001F00
F81F00
F83E00
7C7E00
7FFC00
3FF800
0FE000
ENDCHAR

STARTCHAR afii10096
ENCODING 238
SWIDTH 860 0
DWIDTH 28 0
BBX 27 17 0 0
BITMAP
0F01FE00
1F03FF80
1F07FFC0
1F0FC7C0
1E1F03E0
1E1F03E0
3FFE03E0
3FFE03E0
3FFE03E0
3FFC07C0
7C3E07C0
7C3E0FC0
7C3E1F80
781FFF00
780FFE00
F807FC00
F801E000
ENDCHAR

STARTCHAR afii10097
ENCODING 239
SWIDTH 589 0
DWIDTH 19 0
BBX 20 17 -1 0
BITMAP
01FFF0
07FFF0
0FFFF0
0F81F0
1F01E0
1F03E0
1F83E0
0FFFE0
0FFFC0
03FFC0
07C7C0
0F87C0
1F87C0
3F0780
3E0F80
7C0F80
FC0F80
ENDCHAR

STARTCHAR afii61352
ENCODING 240
SWIDTH 1146 0
DWIDTH 38 0
BBX 37 24 0 0
BITMAP
07C01F0000
07C01E0000
07E01E0000
07E03E0000
0FE03E0000
0FF03E0FC0
0FF03C3FF0
0FF83C7FF0
1FF87C7CF8
1F787CF878
1F7C78F878
1E7C78F078
1E3C78F0F8
3E3EF8F0F8
3E3EF8F9F0
3E1F707FE0
3C1FF03FC0
3C0FF01F80
7C0FF00000
7C0FF00000
7807E3FFC0
7807E3FFC0
F803E3FFC0
F803E00000
ENDCHAR

STARTCHAR afii10071
ENCODING 241
SWIDTH 556 0
DWIDTH 18 0
BBX 16 24 1 0
BITMAP
079F
071E
0F1E
0F1E
0000
0000
0000
07F8
1FFC
3FFE
3E1F
7C1F
F80F
F80F
FFFF
FFFF
FFFF
F000
F000
F83E
7C7E
3FFC
1FF8
0FE0
ENDCHAR

STARTCHAR afii10099
ENCODING 242
SWIDTH 611 0
DWIDTH 20 0
BBX 18 31 1 -7
BITMAP
078000
0F8000
3FFE00
3FFE00
0F0000
0F0000
1F0000
1F3F00
1F7F80
1FFFC0
1FC7C0
3F07C0
3E07C0
3E07C0
3C0780
7C0F80
7C0F80
7C0F80
7C0F00
780F00
F81F00
F81F00
F81F00
F01E00
003E00
003E00
007E00
03FC00
03FC00
03F800
03F000
ENDCHAR

STARTCHAR afii10100
ENCODING 243
SWIDTH 489 0
DWIDTH 16 0
BBX 17 24 0 0
BITMAP
001F00
003C00
007800
007000
00E000
000000
000000
0FFF80
0FFF80
1FFF80
1FFF80
1F0000
1E0000
1E0000
3E0000
3E0000
3E0000
3C0000
7C0000
7C0000
7C0000
780000
780000
F80000
ENDCHAR

STARTCHAR afii10101
ENCODING 244
SWIDTH 563 0
DWIDTH 19 0
BBX 17 17 1 0
BITMAP
03FC00
0FFE00
1FFF00
3F1F80
3E0F80
7C0E00
780000
7FC000
FFC000
FFC000
F81000
F81F00
783E00
7C7C00
3FFC00
3FF800
0FE000
ENDCHAR

STARTCHAR afii10102
ENCODING 245
SWIDTH 556 0
DWIDTH 18 0
BBX 18 17 0 0
BITMAP
01FE00
07FF00
0FFF80
1F0FC0
1E0700
1F0000
1FE000
0FFC00
07FF00
01FF00
003F80
080F80
F80F80
7E1F00
3FFF00
1FFE00
07F800
ENDCHAR

STARTCHAR afii10103
ENCODING 246
SWIDTH 278 0
DWIDTH 9 0
BBX 10 24 0 0
BITMAP
07C0
07C0
0780
0F80
0000
0000
0000
0F80
0F00
1F00
1F00
1F00
1E00
1E00
3E00
3E00
3E00
3C00
7C00
7C00
7C00
7C00
7800
F800
ENDCHAR

STARTCHAR afii10104
ENCODING 247
SWIDTH 278 0
DWIDTH 9 0
BBX 13 24 0 0
BITMAP
3C78
3C78
3CF0
78F0
0000
0000
0000
0F80
0F00
1F00
1F00
1F00
1E00
1E00
3E00
3E00
3E00
3C00
7C00
7C00
7C00
7C00
7800
F800
ENDCHAR

STARTCHAR afii10105
ENCODING 248
SWIDTH 278 0
DWIDTH 9 0
BBX 14 31 -4 -7
BITMAP
007C
007C
007C
0078
0000
0000
0000
00F8
00F0
01F0
01F0
01F0
01F0
01E0
03E0
03E0
03E0
03C0
03C0
07C0
07C0
07C0
0780
0780
0F80
0F80
1F80
FF00
FF00
FE00
FC00
ENDCHAR

STARTCHAR afii10106
ENCODING 249
SWIDTH 933 0
DWIDTH 31 0
BBX 31 17 -2 0
BITMAP
01FFFC00
01FFF800
01FFF800
03FFF800
03C0F800
03C0F000
03C0FFF0
07C0FFFC
07C1FFFE
0781F07E
0781E03E
0F81E03E
0F81E03E
7F03E07C
FF03FFF8
FF03FFF8
FC03FFE0
ENDCHAR

STARTCHAR afii10107
ENCODING 250
SWIDTH 887 0
DWIDTH 29 0
BBX 27 17 1 0
BITMAP
1F07C000
1E078000
1E078000
3E0F8000
3E0F8000
3E0F8000
3C0F0000
3FFFFF80
7FFFFFC0
7FFFFFE0
7C1F03E0
781E03E0
F81E03E0
F83E07C0
F83FFFC0
F03FFF80
F03FFE00
ENDCHAR

STARTCHAR afii10108
ENCODING 251
SWIDTH 611 0
DWIDTH 20 0
BBX 18 24 1 0
BITMAP
078000
0F8000
3FFF00
3FFF00
0F0000
0F0000
1F0000
1F3F00
1F7F80
1FFFC0
1FC7C0
3F07C0
3E07C0
3E07C0
3C0780
7C0F80
7C0F80
7C0F80
7C0F00
780F00
F81F00
F81F00
F81F00
F01E00
ENDCHAR

STARTCHAR afii10109
ENCODING 252
SWIDTH 507 0
DWIDTH 17 0
BBX 18 24 0 0
BITMAP
001F00
003E00
003C00
007000
00E000
000000
000000
0F83C0
0F0FC0
1F0F80
1F1E00
1F3E00
1E3C00
1E7800
3FF000
3FE000
3FF800
3C7800
7C7800
7C7C00
7C3C00
783C00
783C00
F83E00
ENDCHAR

STARTCHAR section
ENCODING 253
SWIDTH 556 0
DWIDTH 18 0
BBX 17 31 1 -7
BITMAP
01FC00
03FE00
07FF00
0F8F00
0F0F80
0F0700
0F8000
078000
07C000
0FF000
1FF800
3CFC00
787E00
783E00
781F00
7C1F00
7E0F00
3F0F00
1F8F00
0FDE00
07FC00
03F800
01F000
00F800
00F800
F07800
F87800
FCF800
7FF000
3FF000
0FC000
ENDCHAR

STARTCHAR afii10110
ENCODING 254
SWIDTH 556 0
DWIDTH 18 0
BBX 21 31 -1 -7
BITMAP
01C1C0
00E380
00FF80
007E00
000000
000000
000000
1E00F8
1F01F0
1F03E0
1F03E0
0F07C0
0F07C0
0F0F80
0F8F00
0F9F00
079E00
07BE00
07BC00
07BC00
07F800
07F000
03F000
03E000
03E000
07C000
0FC000
7F8000
7F0000
FE0000
7C0000
ENDCHAR

STARTCHAR afii10193
ENCODING 255
SWIDTH 611 0
DWIDTH 20 0
BBX 18 23 1 -6
BITMAP
1E03C0
3E07C0
3E07C0
3E07C0
3C0780
3C0F80
7C0F80
7C0F80
7C0F00
780F00
F81F00
F81F00
F83F00
F8FE00
FFFE00
7FDE00
3F3E00
1E0000
1C0000
3C0000
3C0000
3C0000
3C0000
ENDCHAR
ENDFONT
